<svg xmlns="http://www.w3.org/2000/svg" width="90.553" height="77.448" viewBox="0 0 90.553 77.448">
  <g id="그룹_6162" data-name="그룹 6162" transform="translate(-100.667 -680.524)" opacity="0.1">
    <path id="패스_12373" data-name="패스 12373" d="M180.5,743.88H112.963a2.31,2.31,0,0,1-2.309-2.309V699.516a2.31,2.31,0,0,1,2.309-2.31H180.5a2.309,2.309,0,0,1,2.309,2.31v42.055A2.309,2.309,0,0,1,180.5,743.88Zm-65.232-4.619H178.2V701.826H115.273Z" transform="translate(-0.791 -1.321)" fill="#fff"/>
    <path id="패스_12374" data-name="패스 12374" d="M188.911,759.2H102.977a2.31,2.31,0,0,1-1.816-3.737l9.2-11.7a2.307,2.307,0,0,1,1.816-.883h67.542a2.309,2.309,0,0,1,1.817.883l9.2,11.7a2.309,2.309,0,0,1-1.816,3.737Zm-81.183-4.619H184.16l-5.567-7.087H113.3Z" transform="translate(0 -4.936)" fill="#fff"/>
    <path id="패스_12375" data-name="패스 12375" d="M189.421,764.406h-86a1.3,1.3,0,0,1-1.3-1.3h0a1.3,1.3,0,0,1,1.3-1.3h86a1.3,1.3,0,0,1,1.3,1.3h0A1.3,1.3,0,0,1,189.421,764.406Z" transform="translate(-0.115 -6.435)" fill="#fff"/>
    <g id="그룹_6161" data-name="그룹 6161" transform="translate(126.037 680.524)">
      <rect id="사각형_4522" data-name="사각형 4522" width="6.927" height="20.505" transform="translate(0 33.421)" fill="#fff"/>
      <rect id="사각형_4523" data-name="사각형 4523" width="6.927" height="24.001" transform="translate(10.144 29.924)" fill="#fff"/>
      <rect id="사각형_4524" data-name="사각형 4524" width="6.927" height="30.302" transform="translate(20.287 23.623)" fill="#fff"/>
      <path id="패스_12376" data-name="패스 12376" d="M170.947,688.831l-5.877-8a.763.763,0,0,0-1.23,0l-5.876,8a.763.763,0,0,0,.614,1.216h2.414v44.4h6.927v-44.4h2.413A.764.764,0,0,0,170.947,688.831Z" transform="translate(-130.561 -680.524)" fill="#fff"/>
    </g>
  </g>
</svg>
