<svg xmlns="http://www.w3.org/2000/svg" width="79.342" height="74.755" viewBox="0 0 79.342 74.755">
  <g id="그룹_6146" data-name="그룹 6146" transform="translate(-441.144 -284.995)" opacity="0.1">
    <path id="패스_12354" data-name="패스 12354" d="M500.157,341.312h0a10.9,10.9,0,0,1-2.555-.3c-.314-.078-.628-.173-.965-.275a8.133,8.133,0,0,0-5.776,0c-.336.1-.651.2-.95.272a10.945,10.945,0,0,1-2.57.3,9.273,9.273,0,0,1-4.981-1.275l-.02-.014a23.885,23.885,0,0,1-3.5-3.158,31.44,31.44,0,0,1-2.345-2.855l-.2-.288c-4.744-6.806-5.421-14.3-5.71-17.5l-.049-.535c-.042-.372-.073-.793-.089-1.25-.015-.374-.012-.58-.012-.58,0-8.648,6.678-15.7,14.886-15.7a13.483,13.483,0,0,1,8.415,2.542,13.427,13.427,0,0,1,8.448-2.542c8.208,0,14.885,7.056,14.886,15.728h0s0,.2-.014.572c-.013.419-.044.854-.091,1.272l-.046.493c-.288,3.2-.964,10.7-5.709,17.506l-.19.269a31.464,31.464,0,0,1-2.357,2.873,28.66,28.66,0,0,1-3.453,3.121A9.208,9.208,0,0,1,500.157,341.312Zm-6.409-5.341a13.4,13.4,0,0,1,4.121.713c.262.08.508.156.741.214a6.628,6.628,0,0,0,1.546.176h0a5.979,5.979,0,0,0,2.522-.49,24.37,24.37,0,0,0,2.881-2.608,27.023,27.023,0,0,0,2.009-2.448l.166-.236c4.1-5.878,4.68-12.347,4.961-15.456l.051-.553c.038-.342.061-.662.072-.99.01-.247.011-.377.011-.4,0-6.347-4.777-11.5-10.648-11.5-3.024,0-5.44.892-6.626,2.449a2.146,2.146,0,0,1-3.611,0c-1.224-1.543-3.649-2.447-6.625-2.447-5.872,0-10.648,5.155-10.648,11.491,0,.044,0,.173.009.394.012.357.034.671.069.971l.055.594c.28,3.108.864,9.576,4.966,15.46l.168.239a26.949,26.949,0,0,0,2.013,2.449,19.637,19.637,0,0,0,2.834,2.572l.035.025h0a5.963,5.963,0,0,0,2.524.49,6.644,6.644,0,0,0,1.561-.18c.218-.054.463-.13.725-.209A13.383,13.383,0,0,1,493.748,335.971Z" transform="translate(-10.194 -4.579)" fill="#fff"/>
    <path id="패스_12355" data-name="패스 12355" d="M505.373,299.451s-3.975-6.335-3.313-13.055c.542-.233,4-1.4,4-1.4S504.529,294.506,505.373,299.451Z" transform="translate(-21.178 0)" fill="#fff"/>
    <path id="패스_12356" data-name="패스 12356" d="M523.477,327.051a2.376,2.376,0,0,1-2.286-3.026,12.837,12.837,0,0,0-1.813-10.335,2.375,2.375,0,0,1,3.811-2.836c.2.266,4.815,6.595,2.571,14.473A2.376,2.376,0,0,1,523.477,327.051Z" transform="translate(-27.068 -8.668)" fill="#fff"/>
    <path id="패스_12357" data-name="패스 12357" d="M522.4,342.328a2.07,2.07,0,1,1-2.07-2.07A2.07,2.07,0,0,1,522.4,342.328Z" transform="translate(-26.841 -19.235)" fill="#fff"/>
    <rect id="사각형_4520" data-name="사각형 4520" width="3.167" height="14.067" transform="translate(510.598 329.498)" fill="#fff"/>
    <rect id="사각형_4521" data-name="사각형 4521" width="3.167" height="14.067" transform="translate(499.306 344.723)" fill="#fff"/>
    <path id="패스_12358" data-name="패스 12358" d="M507.823,389.891h-64.56a2.119,2.119,0,0,1-2.119-2.119V373.7a2.119,2.119,0,0,1,2.119-2.119h64.56a2.119,2.119,0,0,1,2.119,2.119v14.067A2.119,2.119,0,0,1,507.823,389.891Zm-62.441-4.238H505.7v-9.83H445.382Z" transform="translate(0 -30.14)" fill="#fff"/>
    <path id="패스_12359" data-name="패스 12359" d="M524,368.313h-64.56a2.119,2.119,0,0,1-2.119-2.119V352.128a2.119,2.119,0,0,1,2.119-2.119h15.22a2.119,2.119,0,0,1,0,4.237h-13.1v9.829h60.323v-9.829H503.712a2.119,2.119,0,1,1,0-4.237H524a2.119,2.119,0,0,1,2.119,2.119v14.067A2.119,2.119,0,0,1,524,368.313Z" transform="translate(-5.63 -22.63)" fill="#fff"/>
  </g>
</svg>
