<svg xmlns="http://www.w3.org/2000/svg" width="65.295" height="78.113" viewBox="0 0 65.295 78.113">
  <g id="그룹_6141" data-name="그룹 6141" transform="translate(-211.928 -514.225)" opacity="0.1">
    <path id="패스_12338" data-name="패스 12338" d="M244.8,546.128c-3.015,0-4.963-1.275-4.963-3.248v-3.086a32.628,32.628,0,0,1-5,.4,21.556,21.556,0,0,1-10.332-2.381c-9.709-5.233-12.426-18.41-12.537-18.968a2.037,2.037,0,0,1,1.231-2.285,36.458,36.458,0,0,1,12.4-2.337,21.567,21.567,0,0,1,10.339,2.382,22.686,22.686,0,0,1,8.641,8.909,22.682,22.682,0,0,1,8.643-8.91,21.567,21.567,0,0,1,10.338-2.381,36.458,36.458,0,0,1,12.4,2.337,2.038,2.038,0,0,1,1.231,2.285c-.111.558-2.828,13.735-12.537,18.968a21.57,21.57,0,0,1-10.334,2.38h0a32.341,32.341,0,0,1-4.55-.334v3.019C249.763,544.853,247.815,546.128,244.8,546.128Zm-.888-4.147a6.527,6.527,0,0,0,1.776,0v-4.55a2.037,2.037,0,0,1,2.458-1.993,30.02,30.02,0,0,0,6.167.682,17.559,17.559,0,0,0,8.4-1.893c6.152-3.315,9.02-11.019,10.029-14.462a32.472,32.472,0,0,0-9.187-1.464,17.562,17.562,0,0,0-8.4,1.893c-4.265,2.3-6.928,6.733-8.411,10.049a2.039,2.039,0,0,1-1.86,1.206c-.04,0-.084,0-.13,0-.025,0-.061.008-.112.017a2.039,2.039,0,0,1-2.209-1.178c-1.485-3.33-4.153-7.784-8.429-10.088a17.555,17.555,0,0,0-8.4-1.894,32.3,32.3,0,0,0-9.187,1.462c1.008,3.439,3.876,11.148,10.03,14.464a17.543,17.543,0,0,0,8.4,1.893,30.3,30.3,0,0,0,6.591-.775,2.038,2.038,0,0,1,2.484,1.988Z" transform="translate(0)" fill="#fff"/>
    <path id="패스_12339" data-name="패스 12339" d="M275.338,574.059H214.672a2.038,2.038,0,0,1-2.038-2.038V561.933a2.038,2.038,0,0,1,2.038-2.038h60.666a2.038,2.038,0,0,1,2.038,2.038v10.089A2.038,2.038,0,0,1,275.338,574.059Zm-58.629-4.075H273.3V563.97H216.709Z" transform="translate(-0.263 -17.037)" fill="#fff"/>
    <path id="패스_12340" data-name="패스 12340" d="M267.624,611.547H232.656a2.038,2.038,0,0,1-1.973-1.53l-4.219-16.4a2.038,2.038,0,0,1,1.974-2.545h43.405a2.038,2.038,0,0,1,1.974,2.545l-4.219,16.4A2.038,2.038,0,0,1,267.624,611.547Zm-33.387-4.075h31.808l3.17-12.321H231.066Z" transform="translate(-5.398 -28.668)" fill="#fff"/>
    <path id="패스_12341" data-name="패스 12341" d="M263.742,615.378h-30.1a2.038,2.038,0,0,1-1.973-1.53l-9.087-35.315a2.038,2.038,0,0,1,1.974-2.545h48.273a2.038,2.038,0,0,1,1.973,2.545l-9.087,35.315A2.038,2.038,0,0,1,263.742,615.378Zm-28.52-4.075h26.94l8.039-31.24H227.183Z" transform="translate(-3.95 -23.04)" fill="#fff"/>
  </g>
</svg>
