<svg xmlns="http://www.w3.org/2000/svg" xmlns:xlink="http://www.w3.org/1999/xlink" width="50.743" height="73.076" viewBox="0 0 50.743 73.076">
  <defs>
    <linearGradient id="linear-gradient" x1="11.405" y1="-19.462" x2="12.214" y2="-19.462" gradientUnits="objectBoundingBox">
      <stop offset="0" stop-color="#fff"/>
      <stop offset="0.213" stop-color="#ec4a2f"/>
      <stop offset="0.606" stop-color="#de2819"/>
      <stop offset="1" stop-color="#cd0000"/>
    </linearGradient>
  </defs>
  <g id="그룹_6160" data-name="그룹 6160" transform="translate(-118.23 -849.078)" opacity="0.1">
    <g id="그룹_6150" data-name="그룹 6150" transform="translate(127.152 876.368)">
      <path id="패스_12368" data-name="패스 12368" d="M148.595,919.824a2.241,2.241,0,0,1-2.063-3.117l3.795-8.954-.6.053a2.235,2.235,0,0,1-2.117-1.075l-.95-1.576-1.792.414a2.243,2.243,0,0,1-2.246-.774l-.373-.461-3.794,8.952a2.241,2.241,0,1,1-4.128-1.749l5.251-12.391a2.241,2.241,0,0,1,3.806-.536l1.841,2.275,2.011-.464a2.24,2.24,0,0,1,2.424,1.027l1.067,1.769,2.92-.258a2.242,2.242,0,0,1,2.262,3.107l-5.252,12.391A2.242,2.242,0,0,1,148.595,919.824Z" transform="translate(-134.152 -897.779)" fill="url(#linear-gradient)"/>
    </g>
    <g id="그룹_6159" data-name="그룹 6159" transform="translate(118.231 849.078)">
      <g id="그룹_6153" data-name="그룹 6153">
        <g id="그룹_6152" data-name="그룹 6152">
          <g id="그룹_6151" data-name="그룹 6151">
            <path id="패스_12369" data-name="패스 12369" d="M144.823,899.768a2.241,2.241,0,0,1-.118-4.479,20.869,20.869,0,1,0-16.838-7.136,2.241,2.241,0,0,1-3.383,2.941,25.351,25.351,0,1,1,20.46,8.671C144.9,899.767,144.863,899.768,144.823,899.768Z" transform="translate(-118.231 -849.078)" fill="url(#linear-gradient)"/>
          </g>
        </g>
      </g>
      <g id="그룹_6158" data-name="그룹 6158" transform="translate(0.884 38.312)">
        <g id="그룹_6156" data-name="그룹 6156" transform="translate(0.026 11.289)">
          <g id="그룹_6154" data-name="그룹 6154" transform="translate(1.791 11.51)">
            <path id="패스_12370" data-name="패스 12370" d="M126.456,970.1a2.242,2.242,0,0,1-2.215-1.9l-1.163-7.481a2.242,2.242,0,0,1,3.09-2.408l7.348,3.114a2.241,2.241,0,0,1,.419,3.895l-6.186,4.367A2.241,2.241,0,0,1,126.456,970.1Z" transform="translate(-123.051 -958.138)" fill="url(#linear-gradient)"/>
          </g>
          <g id="그룹_6155" data-name="그룹 6155">
            <path id="패스_12371" data-name="패스 12371" d="M131.237,956.7a2.246,2.246,0,0,1-.875-.178l-7.349-3.115a2.243,2.243,0,0,1-1.34-1.719l-1.791-11.51a2.242,2.242,0,0,1,3.09-2.409l18.657,7.907a2.242,2.242,0,0,1,.418,3.895l-9.516,6.718A2.242,2.242,0,0,1,131.237,956.7Zm-5.326-6.933,5.053,2.141,5.207-3.675-11.24-4.764Z" transform="translate(-119.854 -937.597)" fill="url(#linear-gradient)"/>
          </g>
        </g>
        <g id="그룹_6157" data-name="그룹 6157">
          <path id="패스_12372" data-name="패스 12372" d="M140.707,941.191a2.245,2.245,0,0,1-.875-.178l-18.657-7.907a2.242,2.242,0,0,1-1.189-2.939l4.81-11.351a2.242,2.242,0,0,1,2.939-1.189l18.657,7.907a2.242,2.242,0,0,1,1.189,2.938l-4.81,11.35a2.242,2.242,0,0,1-2.064,1.367Zm-15.719-11.338,14.529,6.158,3.061-7.223L128.05,922.63Z" transform="translate(-119.808 -917.45)" fill="url(#linear-gradient)"/>
        </g>
      </g>
    </g>
  </g>
</svg>
