<svg xmlns="http://www.w3.org/2000/svg" width="18" height="16.001" viewBox="0 0 18 16.001">
  <path id="house-solid" d="M18,7.985a1.01,1.01,0,0,1-1,1H16l.022,5.007a2.293,2.293,0,0,1-.016.253v.5A1.25,1.25,0,0,1,14.751,16h-.5c-.034,0-.069,0-.1,0s-.088,0-.131,0H12.251A1.25,1.25,0,0,1,11,14.751V12a1,1,0,0,0-1-1H8a1,1,0,0,0-1,1v2.75A1.25,1.25,0,0,1,5.75,16H4c-.047,0-.094,0-.141-.006S3.788,16,3.75,16h-.5A1.25,1.25,0,0,1,2,14.751v-3.5a.819.819,0,0,1,0-.088V8.988H1a.988.988,0,0,1-1-1,1.016,1.016,0,0,1,.313-.75L8.326.25A.9.9,0,0,1,9.013,0,1.038,1.038,0,0,1,9.67.219l7.982,7.016A.856.856,0,0,1,18,7.985Z" fill="#a1a7b6"/>
</svg>
