<svg id="tab_iCon_folder" xmlns="http://www.w3.org/2000/svg" width="16" height="16" viewBox="0 0 16 16">
  <rect id="boundary" width="16" height="16" opacity="0"/>
  <path id="folder-regular" d="M0,34a2,2,0,0,1,2-2H6.128a2.249,2.249,0,0,1,1.591.659L9.059,34H14a2,2,0,0,1,2,2v8a2,2,0,0,1-2,2H2a2,2,0,0,1-2-2Zm2-.5a.5.5,0,0,0-.5.5V44a.5.5,0,0,0,.5.5H14a.5.5,0,0,0,.5-.5V36a.5.5,0,0,0-.5-.5H8.956a1.251,1.251,0,0,1-.884-.366L6.659,33.719a.749.749,0,0,0-.531-.219Z" transform="translate(0 -32)" fill="#fff" opacity="0.2"/>
</svg>
