<svg id="tab_iCon_list" xmlns="http://www.w3.org/2000/svg" width="16" height="16" viewBox="0 0 16 16">
  <rect id="boundary" width="16" height="16" opacity="0"/>
  <path id="list-ul-solid" d="M17.548,51.1A1.548,1.548,0,1,0,16,49.548,1.548,1.548,0,0,0,17.548,51.1Zm4.129-2.581a1.032,1.032,0,1,0,0,2.065h9.29a1.032,1.032,0,0,0,0-2.065Zm0,5.161a1.032,1.032,0,1,0,0,2.065h9.29a1.032,1.032,0,1,0,0-2.065Zm0,5.161a1.032,1.032,0,1,0,0,2.065h9.29a1.032,1.032,0,0,0,0-2.065Zm-4.129,2.581A1.548,1.548,0,1,0,16,59.871,1.548,1.548,0,0,0,17.548,61.419ZM19.1,54.71a1.548,1.548,0,1,0-1.548,1.548A1.548,1.548,0,0,0,19.1,54.71Z" transform="translate(-16 -47)" fill="#fff" opacity="0.2"/>
</svg>
