<svg xmlns="http://www.w3.org/2000/svg" width="22.085" height="27.741" viewBox="0 0 22.085 27.741">
  <g id="그룹_6187" data-name="그룹 6187" transform="translate(-121.949 -188.207)">
    <path id="패스_12400" data-name="패스 12400" d="M140.1,194.212a1.655,1.655,0,0,1,.282.88v9.269l-2.3-1.76-2.909,1.827v-8.593a1.677,1.677,0,0,0-1.071-1.624h-8.841a2.477,2.477,0,0,1-2.47-2.47v-.252a2.477,2.477,0,0,1,2.47-2.47h17.668a3.23,3.23,0,0,0-2.14-.814H125.2a3.257,3.257,0,0,0-3.248,3.248V212.7a3.257,3.257,0,0,0,3.248,3.248h18.025a.814.814,0,0,0,.812-.812V194.212Z" transform="translate(0)" fill="#fff"/>
    <path id="패스_12401" data-name="패스 12401" d="M126.3,190.956a.3.3,0,0,0,.3.3H145.08a.3.3,0,1,0,0-.609H126.6A.3.3,0,0,0,126.3,190.956Z" transform="translate(-1.791 -1.007)" fill="#fff"/>
    <path id="패스_12402" data-name="패스 12402" d="M145.487,196.288H126.6a.3.3,0,1,0,0,.609h18.884a.3.3,0,0,0,0-.609Z" transform="translate(-1.791 -3.328)" fill="#fff"/>
    <path id="패스_12403" data-name="패스 12403" d="M125.3,192.835a.3.3,0,0,0,.3.3h19.469a.3.3,0,0,0,0-.609H125.609A.3.3,0,0,0,125.3,192.835Z" transform="translate(-1.382 -1.781)" fill="#fff"/>
    <path id="패스_12404" data-name="패스 12404" d="M145.077,194.409H125.609a.3.3,0,0,0,0,.609h19.469a.3.3,0,0,0,0-.609Z" transform="translate(-1.382 -2.554)" fill="#fff"/>
  </g>
</svg>
