<svg xmlns="http://www.w3.org/2000/svg" width="40.819" height="48" viewBox="0 0 40.819 48">
  <g id="그룹_7416" data-name="그룹 7416" transform="translate(-609 -523)">
    <g id="그룹_108" data-name="그룹 108" transform="translate(609 523)">
      <path id="패스_28" data-name="패스 28" d="M1397.027,936.015h31.466l1.649-1.649V902.909l-1.649-1.649h-31.466l-1.649,1.649v31.457Zm29.816-3.3h-28.167v-28.16h28.167Z" transform="translate(-1395.378 -894.07)" fill="#284a72"/>
      <path id="패스_29" data-name="패스 29" d="M1386.027,947.072h31.465l1.649-1.651v-31.51l-1.649-1.651h-6.047l-1.649,1.651v23.8h-23.769l-1.649,1.651v6.056Zm29.815-3.3h-28.167v-2.753h23.769l1.649-1.651v-23.8h2.748Z" transform="translate(-1378.322 -899.072)" fill="#284a72"/>
      <g id="그룹_107" data-name="그룹 107" transform="translate(14.058)">
        <path id="패스_30" data-name="패스 30" d="M1435.141,923.834a4.747,4.747,0,0,1-4.741-4.741v-6.477h3.3v6.477a1.439,1.439,0,0,0,2.877,0V912.8h3.3v6.291A4.746,4.746,0,0,1,1435.141,923.834Z" transform="translate(-1426.463 -899.176)" fill="#ff6675"/>
        <path id="패스_31" data-name="패스 31" d="M1436.667,905.206h-3.3v-10.3a3.407,3.407,0,0,0-6.814,0v.461h-3.3v-.461a6.71,6.71,0,0,1,13.42,0Z" transform="translate(-1423.248 -888.198)" fill="#ff6675"/>
      </g>
    </g>
  </g>
</svg>
