<svg xmlns="http://www.w3.org/2000/svg" width="18" height="18" viewBox="0 0 18 18">
  <g id="iCon" transform="translate(-1387 -97)">
    <rect id="boundary" width="18" height="18" transform="translate(1387 97)" opacity="0"/>
    <path id="Icon_open-monitor" data-name="Icon open-monitor" d="M.678-.005a1,1,0,0,0-.68,1v10a1,1,0,0,0,1,1H6v2H4a2.006,2.006,0,0,0-2,2H14a2.006,2.006,0,0,0-2-2H10v-2h5a1,1,0,0,0,1-1v-10a1,1,0,0,0-1-1H1a1,1,0,0,0-.18,0,1,1,0,0,0-.12,0Zm1.32,2H14v8H2Z" transform="translate(1388.003 98.009)" fill="#385384"/>
  </g>
</svg>
