<svg xmlns="http://www.w3.org/2000/svg" width="164.444" height="32" viewBox="0 0 164.444 32">
  <g id="TOP_LOGO" transform="translate(-126 -12)">
    <g id="LOGO_h32" transform="translate(45)">
      <rect id="boundary" width="164.444" height="32" transform="translate(81 12)" opacity="0"/>
      <g id="LOGO_WebSquare_AI" transform="translate(-33.923 -403.538)">
        <g id="그룹_7391" data-name="그룹 7391" transform="translate(114.923 415.538)">
          <g id="그룹_7379" data-name="그룹 7379" transform="translate(0 0)">
            <g id="그룹_7378" data-name="그룹 7378">
              <path id="Rectangle_4664" data-name="Rectangle 4664" d="M0,0H20.79V20.79H0ZM20.4.391H.391V20.4H20.4Z" transform="translate(15.97 1.285) rotate(45)" fill="rgba(142,202,233,0.08)"/>
              <g id="그룹_7377" data-name="그룹 7377">
                <g id="그룹_7376" data-name="그룹 7376">
                  <g id="그룹_7375" data-name="그룹 7375">
                    <g id="그룹_7374" data-name="그룹 7374">
                      <g id="그룹_7373" data-name="그룹 7373">
                        <path id="패스_24384" data-name="패스 24384" d="M3.913,0H28.087A3.913,3.913,0,0,1,32,3.913V28.087A3.913,3.913,0,0,1,28.087,32H3.913A3.913,3.913,0,0,1,0,28.087V3.913A3.913,3.913,0,0,1,3.913,0Z" fill="#17366f"/>
                      </g>
                    </g>
                  </g>
                </g>
              </g>
              <path id="패스_24365" data-name="패스 24365" d="M149.481,435.492l-14.424,14.424,14.424,14.424,14.424-14.424ZM135.9,449.916l13.579-13.579,13.579,13.579L149.481,463.5Z" transform="translate(-133.481 -433.931)" fill="#2f5388"/>
            </g>
          </g>
          <g id="그룹_7390" data-name="그룹 7390" transform="translate(1.214 8.18)">
            <g id="그룹_7389" data-name="그룹 7389">
              <g id="그룹_7388" data-name="그룹 7388">
                <g id="그룹_7383" data-name="그룹 7383" transform="translate(11.221)">
                  <g id="그룹_7382" data-name="그룹 7382">
                    <path id="패스_24366" data-name="패스 24366" d="M290.8,546.242l-.891-2.745h-4.372l-.891,2.745h-3.775l5.214-14.941h3.511l3.912,11.21v-5.766a1.5,1.5,0,0,1,1.5-1.5h2.065v11Zm-2.02-6.272-1.057-3.27-1.057,3.27Z" transform="translate(-280.317 -530.422)" fill="#fff"/>
                    <path id="패스_24367" data-name="패스 24367" d="M282.825,527.084l4.581,13.128v-8.075a1.109,1.109,0,0,1,1.109-1.109h1.674v10.215h-5.6L283.7,538.5h-4.941l-.891,2.745h-2.939l4.941-14.159h2.955m-3.19,8.669h3.19l-1.595-4.934-1.595,4.934m3.745-9.451h-4.067l-.183.525-4.941,14.158-.363,1.04h4.61l.176-.541.716-2.2h3.8l.716,2.2.176.541h6.948v-11.78h-2.456a1.894,1.894,0,0,0-1.892,1.892v3.457l-3.06-8.768-.183-.525Zm-2.67,8.669.519-1.607.519,1.607Z" transform="translate(-273.827 -525.814)" fill="#17366f"/>
                    <g id="그룹_7381" data-name="그룹 7381" transform="translate(12.533)">
                      <circle id="타원_2736" data-name="타원 2736" cx="2.042" cy="2.042" r="2.042" transform="translate(0.391 0.391)" fill="#fff"/>
                      <g id="그룹_7380" data-name="그룹 7380">
                        <path id="패스_24368" data-name="패스 24368" d="M436.421,520.855a1.651,1.651,0,1,1-1.651,1.651,1.651,1.651,0,0,1,1.651-1.651m0-.783a2.433,2.433,0,1,0,2.433,2.433,2.436,2.436,0,0,0-2.433-2.433Z" transform="translate(-433.988 -520.072)" fill="#17366f"/>
                      </g>
                    </g>
                  </g>
                </g>
                <g id="그룹_7387" data-name="그룹 7387" transform="translate(0 5.815)">
                  <g id="그룹_7386" data-name="그룹 7386">
                    <g id="그룹_7384" data-name="그룹 7384">
                      <path id="패스_24369" data-name="패스 24369" d="M145.191,607.71l-.211-2.324h-2.47l.492,5.325A7.049,7.049,0,0,1,145.191,607.71Z" transform="translate(-141.565 -604.525)" fill="#8ecae9"/>
                      <path id="패스_24370" data-name="패스 24370" d="M133.854,595.241l.211,2.324a7.049,7.049,0,0,0-2.189,3l-.492-5.325h2.47m.787-.861h-4.2l.087.94.492,5.325.323,3.5,1.331-3.253a6.227,6.227,0,0,1,1.906-2.637l.388-.288-.044-.481-.211-2.324-.071-.783Z" transform="translate(-130.44 -594.38)" fill="#17366f"/>
                    </g>
                    <g id="그룹_7385" data-name="그룹 7385" transform="translate(0.696 0.007)">
                      <path id="패스_24371" data-name="패스 24371" d="M162.566,605.475h-2.357a7.848,7.848,0,0,1-.068,2.668c-.306,1.786-.97,3.163-1.483,3.075-.128-.022-.235-.133-.318-.316q-.066-.3-.155-.582A3.093,3.093,0,0,0,156,607.964c-.066-.011-.133-.019-.2-.024-1.785-.128-3.6,2.085-4.11,5.083q-.051.3-.082.587h2.466c.009-.055.018-.11.027-.166.306-1.786.97-3.163,1.483-3.075.146.025.264.167.352.4q.046.2.1.385a3.144,3.144,0,0,0,2.22,2.456l.014,0c1.844.3,3.765-1.959,4.3-5.061A8.758,8.758,0,0,0,162.566,605.475Z" transform="translate(-150.644 -604.614)" fill="#8ecae9"/>
                      <path id="패스_24372" data-name="패스 24372" d="M151.258,595.33a8.757,8.757,0,0,1,0,3.074c-.5,2.916-2.226,5.089-3.962,5.089a2.063,2.063,0,0,1-.334-.027l-.014,0a3.144,3.144,0,0,1-2.22-2.456q-.056-.187-.1-.385c-.087-.231-.205-.373-.352-.4a.29.29,0,0,0-.047,0c-.506,0-1.139,1.347-1.436,3.079q-.014.083-.027.166H140.3q.032-.291.082-.587c.5-2.916,2.226-5.088,3.962-5.088.049,0,.1,0,.148.005.067,0,.133.012.2.024a3.093,3.093,0,0,1,2.189,2.356q.089.279.155.582c.083.183.19.294.318.316a.277.277,0,0,0,.047,0c.506,0,1.139-1.347,1.436-3.079a7.848,7.848,0,0,0,.068-2.668h2.357m.714-.861h-4.126l.211,1.034a7.028,7.028,0,0,1-.073,2.35,8.878,8.878,0,0,1-.435,1.647,3.737,3.737,0,0,0-2.716-2.53c-.091-.016-.186-.027-.284-.034-.069,0-.14-.007-.209-.007a4.088,4.088,0,0,0-3.123,1.781,9.1,9.1,0,0,0-1.688,4.023c-.036.212-.066.427-.089.639l-.1.954H143.5l.114-.728q.012-.076.025-.153a8.825,8.825,0,0,1,.444-1.67,3.731,3.731,0,0,0,2.719,2.537l.027,0a2.932,2.932,0,0,0,.466.037,4.088,4.088,0,0,0,3.123-1.781,9.1,9.1,0,0,0,1.688-4.024,9.65,9.65,0,0,0,0-3.379l-.133-.7Z" transform="translate(-139.336 -594.469)" fill="#17366f"/>
                    </g>
                  </g>
                </g>
              </g>
            </g>
          </g>
        </g>
        <g id="그룹_7394" data-name="그룹 7394" transform="translate(157.649 425.717)">
          <g id="그룹_7393" data-name="그룹 7393">
            <g id="그룹_7392" data-name="그룹 7392">
              <path id="패스_24373" data-name="패스 24373" d="M678.718,550.654l-3.7,12.844h-2.9l-2.3-8.053-2.3,8.053h-2.9l-3.7-12.844h3.073l2.206,8.4,2.206-8.4h2.979l2.191,8.368,2.222-8.368Z" transform="translate(-660.91 -550.26)" fill="#17366f"/>
              <path id="패스_24374" data-name="패스 24374" d="M880.614,598.79a4.807,4.807,0,1,1,9.613,0,6.332,6.332,0,0,1-.063.9H883.4a1.951,1.951,0,0,0,2.017,1.686,1.9,1.9,0,0,0,1.7-.725h2.821a4.442,4.442,0,0,1-4.523,2.978A4.634,4.634,0,0,1,880.614,598.79Zm6.871-.914a1.964,1.964,0,0,0-2.064-1.7,1.934,1.934,0,0,0-2.033,1.7Z" transform="translate(-863.421 -590.17)" fill="#17366f"/>
              <path id="패스_24375" data-name="패스 24375" d="M1022.369,557.911v.946h-2.805V545.619h2.805v4.948a3.114,3.114,0,0,1,2.648-1.166c2.647,0,4.491,2.033,4.491,4.838s-1.844,4.838-4.491,4.838A3.114,3.114,0,0,1,1022.369,557.911Zm4.4-3.672a2.209,2.209,0,0,0-2.19-2.443,2.451,2.451,0,0,0,0,4.885A2.208,2.208,0,0,0,1026.766,554.239Z" transform="translate(-991.498 -545.619)" fill="#17366f"/>
              <path id="패스_24376" data-name="패스 24376" d="M1166.642,550.818h-2.963a2.131,2.131,0,0,0-2.38-1.8c-1.34,0-2.08.536-2.08,1.308,0,.961.993,1.292,3.5,1.812,2.963.615,3.971,2.08,3.971,4,0,2.458-2.317,3.956-5.185,3.956-3.168,0-5.484-1.718-5.61-4.46h2.947c.158,1.229,1.229,2.049,2.868,2.049,1.166,0,2.033-.583,2.033-1.418,0-1.024-.867-1.434-3.152-1.86-2.79-.52-4.3-1.67-4.3-4.082,0-2.317,2.3-3.7,5.2-3.7C1164.357,546.626,1166.5,548.375,1166.642,550.818Z" transform="translate(-1117.16 -546.547)" fill="#17366f"/>
              <path id="패스_24377" data-name="패스 24377" d="M1310.442,602.462a3.114,3.114,0,0,1-2.648,1.166c-2.647,0-4.491-2.033-4.491-4.838s1.844-4.838,4.491-4.838a3.114,3.114,0,0,1,2.648,1.166v-.946h2.805v13.08h-2.805Zm.047-3.672a2.238,2.238,0,0,0-2.254-2.443,2.457,2.457,0,0,0,0,4.885A2.238,2.238,0,0,0,1310.489,598.79Z" transform="translate(-1253.033 -590.17)" fill="#17366f"/>
              <path id="패스_24378" data-name="패스 24378" d="M1450.507,602.113v-5.342h2.805v4.87c0,1.4.567,2.175,1.623,2.175,1.1,0,1.765-.867,1.765-2.3v-4.744h2.805v9.235H1456.7v-.946a3.03,3.03,0,0,1-2.585,1.166C1451.973,606.227,1450.507,604.666,1450.507,602.113Z" transform="translate(-1388.718 -592.768)" fill="#17366f"/>
              <path id="패스_24379" data-name="패스 24379" d="M1581.4,598.79c0-2.805,1.844-4.838,4.491-4.838a3.114,3.114,0,0,1,2.648,1.166v-.946h2.805v9.235h-2.805v-.946a3.114,3.114,0,0,1-2.648,1.166C1583.248,603.628,1581.4,601.6,1581.4,598.79Zm7.186,0a2.238,2.238,0,0,0-2.254-2.443,2.457,2.457,0,0,0,0,4.885A2.238,2.238,0,0,0,1588.59,598.79Z" transform="translate(-1509.372 -590.17)" fill="#17366f"/>
              <path id="패스_24380" data-name="패스 24380" d="M1730.421,594.173h2.805v.946a3.03,3.03,0,0,1,2.584-1.166,3.437,3.437,0,0,1,1.214.158l.031,2.632a3.107,3.107,0,0,0-1.434-.315,2.144,2.144,0,0,0-2.4,2.254v4.728h-2.805Z" transform="translate(-1646.728 -590.17)" fill="#17366f"/>
              <path id="패스_24381" data-name="패스 24381" d="M1817.013,598.79a4.807,4.807,0,1,1,9.613,0,6.35,6.35,0,0,1-.063.9H1819.8a1.951,1.951,0,0,0,2.017,1.686,1.9,1.9,0,0,0,1.7-.725h2.821a4.442,4.442,0,0,1-4.523,2.978A4.634,4.634,0,0,1,1817.013,598.79Zm6.871-.914a1.964,1.964,0,0,0-2.064-1.7,1.934,1.934,0,0,0-2.033,1.7Z" transform="translate(-1726.544 -590.17)" fill="#17366f"/>
              <path id="패스_24382" data-name="패스 24382" d="M2004.676,561.008h-4.98l-.9,2.49h-2.963l4.98-12.844h2.979l4.98,12.844h-3.2Zm-.882-2.49-1.607-4.476-1.607,4.476Z" transform="translate(-1891.372 -550.26)" fill="#17366f"/>
              <path id="패스_24383" data-name="패스 24383" d="M2175.513,550.654V563.5h-2.868V550.654Z" transform="translate(-2054.345 -550.26)" fill="#17366f"/>
            </g>
          </g>
        </g>
      </g>
    </g>
  </g>
</svg>
